<svg width="60" height="60" viewBox="0 0 60 60" fill="none" xmlns="http://www.w3.org/2000/svg">
<path d="M30 47.5C32.6522 47.5 35.1957 46.4464 37.0711 44.5711C38.9464 42.6957 40 40.1522 40 37.5C40 34.8478 38.9464 32.3043 37.0711 30.4289C35.1957 28.5536 32.6522 27.5 30 27.5C27.3478 27.5 24.8043 28.5536 22.9289 30.4289C21.0536 32.3043 20 34.8478 20 37.5C20 40.1522 21.0536 42.6957 22.9289 44.5711C24.8043 46.4464 27.3478 47.5 30 47.5Z" stroke="black" stroke-width="1.5" stroke-miterlimit="10" stroke-linecap="round" stroke-linejoin="round"/>
<path d="M26.1 37.5L27.725 39.125C28.2 39.6 28.975 39.625 29.45 39.15L33.9 35.05" stroke="black" stroke-width="1.5" stroke-linecap="round" stroke-linejoin="round"/>
<path d="M18.75 19.175V16.75C18.75 11.125 23.275 5.6 28.9 5.075C30.4629 4.92144 32.0407 5.09682 33.5318 5.58984C35.0228 6.08286 36.3942 6.88261 37.5575 7.93761C38.7208 8.99261 39.6504 10.2795 40.2863 11.7154C40.9223 13.1514 41.2505 14.7045 41.25 16.275V19.725M22.5 55H37.5C47.55 55 49.35 50.975 49.875 46.075L51.75 31.075C52.425 24.975 50.675 20 40 20H20C9.32499 20 7.57499 24.975 8.24999 31.075L10.125 46.075C10.65 50.975 12.45 55 22.5 55Z" stroke="black" stroke-width="1.5" stroke-miterlimit="10" stroke-linecap="round" stroke-linejoin="round"/>
</svg>
