<svg width="218" height="39" viewBox="0 0 218 39" fill="none" xmlns="http://www.w3.org/2000/svg">
<g filter="url(#filter0_d_101_7)">
<path d="M28.9318 10H25.4091C25.2008 8.98674 24.8362 8.09659 24.3153 7.32955C23.804 6.5625 23.179 5.91856 22.4403 5.39773C21.7112 4.86742 20.9015 4.4697 20.0114 4.20455C19.1212 3.93939 18.1932 3.80682 17.2273 3.80682C15.4659 3.80682 13.8703 4.25189 12.4403 5.14205C11.0199 6.0322 9.88826 7.34375 9.04545 9.0767C8.21212 10.8097 7.79545 12.9356 7.79545 15.4545C7.79545 17.9735 8.21212 20.0994 9.04545 21.8324C9.88826 23.5653 11.0199 24.8769 12.4403 25.767C13.8703 26.6572 15.4659 27.1023 17.2273 27.1023C18.1932 27.1023 19.1212 26.9697 20.0114 26.7045C20.9015 26.4394 21.7112 26.0464 22.4403 25.5256C23.179 24.9953 23.804 24.3466 24.3153 23.5795C24.8362 22.803 25.2008 21.9129 25.4091 20.9091H28.9318C28.6667 22.3958 28.1837 23.7263 27.483 24.9006C26.7822 26.0748 25.911 27.0739 24.8693 27.8977C23.8277 28.7121 22.6581 29.3324 21.3608 29.7585C20.0729 30.1847 18.6951 30.3977 17.2273 30.3977C14.7462 30.3977 12.5398 29.7917 10.608 28.5795C8.67614 27.3674 7.15625 25.6439 6.0483 23.4091C4.94034 21.1742 4.38636 18.5227 4.38636 15.4545C4.38636 12.3864 4.94034 9.73485 6.0483 7.5C7.15625 5.26515 8.67614 3.54167 10.608 2.32955C12.5398 1.11742 14.7462 0.511363 17.2273 0.511363C18.6951 0.511363 20.0729 0.724431 21.3608 1.15057C22.6581 1.5767 23.8277 2.2017 24.8693 3.02557C25.911 3.83996 26.7822 4.83428 27.483 6.00852C28.1837 7.17329 28.6667 8.50379 28.9318 10ZM43.0334 30.4545C41.0637 30.4545 39.3355 29.9858 37.8487 29.0483C36.3714 28.1108 35.2161 26.7992 34.3828 25.1136C33.5589 23.428 33.147 21.4583 33.147 19.2045C33.147 16.9318 33.5589 14.9479 34.3828 13.2528C35.2161 11.5578 36.3714 10.2415 37.8487 9.30398C39.3355 8.36648 41.0637 7.89773 43.0334 7.89773C45.0031 7.89773 46.7266 8.36648 48.2038 9.30398C49.6906 10.2415 50.8459 11.5578 51.6697 13.2528C52.5031 14.9479 52.9197 16.9318 52.9197 19.2045C52.9197 21.4583 52.5031 23.428 51.6697 25.1136C50.8459 26.7992 49.6906 28.1108 48.2038 29.0483C46.7266 29.9858 45.0031 30.4545 43.0334 30.4545ZM43.0334 27.4432C44.5296 27.4432 45.7607 27.0597 46.7266 26.2926C47.6925 25.5256 48.4074 24.517 48.8714 23.267C49.3355 22.017 49.5675 20.6629 49.5675 19.2045C49.5675 17.7462 49.3355 16.3873 48.8714 15.1278C48.4074 13.8684 47.6925 12.8504 46.7266 12.0739C45.7607 11.2973 44.5296 10.9091 43.0334 10.9091C41.5372 10.9091 40.3061 11.2973 39.3402 12.0739C38.3743 12.8504 37.6593 13.8684 37.1953 15.1278C36.7313 16.3873 36.4993 17.7462 36.4993 19.2045C36.4993 20.6629 36.7313 22.017 37.1953 23.267C37.6593 24.517 38.3743 25.5256 39.3402 26.2926C40.3061 27.0597 41.5372 27.4432 43.0334 27.4432ZM73.4915 13.0682L70.4801 13.9205C70.2907 13.4186 70.0114 12.9309 69.642 12.4574C69.2822 11.9744 68.7898 11.5767 68.1648 11.2642C67.5398 10.9517 66.7396 10.7955 65.7642 10.7955C64.429 10.7955 63.3163 11.1032 62.4261 11.7188C61.5455 12.3248 61.1051 13.0966 61.1051 14.0341C61.1051 14.8674 61.4081 15.5256 62.0142 16.0085C62.6203 16.4915 63.5672 16.8939 64.8551 17.2159L68.0938 18.0114C70.0445 18.4848 71.4981 19.2093 72.4545 20.1847C73.411 21.1506 73.8892 22.3958 73.8892 23.9205C73.8892 25.1705 73.5294 26.2879 72.8097 27.2727C72.0994 28.2576 71.1051 29.0341 69.8267 29.6023C68.5483 30.1705 67.0616 30.4545 65.3665 30.4545C63.1411 30.4545 61.2992 29.9716 59.8409 29.0057C58.3826 28.0398 57.4593 26.6288 57.071 24.7727L60.2528 23.9773C60.5559 25.1515 61.1288 26.0322 61.9716 26.6193C62.8239 27.2064 63.9366 27.5 65.3097 27.5C66.8722 27.5 68.1127 27.1686 69.0312 26.5057C69.9593 25.8333 70.4233 25.0284 70.4233 24.0909C70.4233 23.3333 70.1581 22.6989 69.6278 22.1875C69.0975 21.6667 68.2831 21.2784 67.1847 21.0227L63.5483 20.1705C61.5502 19.697 60.0824 18.9631 59.1449 17.9688C58.2169 16.965 57.7528 15.7102 57.7528 14.2045C57.7528 12.9735 58.0985 11.8845 58.7898 10.9375C59.4905 9.99053 60.4422 9.24716 61.6449 8.70739C62.857 8.16761 64.2301 7.89773 65.7642 7.89773C67.9233 7.89773 69.6184 8.37121 70.8494 9.31818C72.09 10.2652 72.9706 11.5152 73.4915 13.0682ZM78.9354 30V8.18182H82.174V11.5909H82.4581C82.9126 10.4261 83.6465 9.52178 84.6598 8.87784C85.6731 8.22443 86.8899 7.89773 88.3104 7.89773C89.7498 7.89773 90.9477 8.22443 91.9041 8.87784C92.87 9.52178 93.6229 10.4261 94.1626 11.5909H94.3899C94.9486 10.464 95.7867 9.56913 96.9041 8.90625C98.0215 8.2339 99.3615 7.89773 100.924 7.89773C102.875 7.89773 104.47 8.50852 105.711 9.73011C106.951 10.9422 107.572 12.8314 107.572 15.3977V30H104.219V15.3977C104.219 13.7879 103.779 12.6373 102.898 11.946C102.018 11.2547 100.981 10.9091 99.7876 10.9091C98.2536 10.9091 97.0651 11.3731 96.2223 12.3011C95.3795 13.2197 94.9581 14.3845 94.9581 15.7955V30H91.549V15.0568C91.549 13.8163 91.1465 12.8172 90.3416 12.0597C89.5367 11.2926 88.4998 10.9091 87.2308 10.9091C86.3596 10.9091 85.5452 11.1411 84.7876 11.6051C84.0395 12.0691 83.4335 12.7131 82.9695 13.5369C82.5149 14.3513 82.2876 15.2936 82.2876 16.3636V30H78.9354ZM122.849 30.4545C120.746 30.4545 118.933 29.9905 117.408 29.0625C115.893 28.125 114.724 26.8182 113.9 25.142C113.085 23.4564 112.678 21.4962 112.678 19.2614C112.678 17.0265 113.085 15.0568 113.9 13.3523C114.724 11.6383 115.87 10.303 117.337 9.34659C118.815 8.38068 120.538 7.89773 122.508 7.89773C123.644 7.89773 124.766 8.08712 125.874 8.46591C126.982 8.8447 127.991 9.46023 128.9 10.3125C129.809 11.1553 130.533 12.2727 131.073 13.6648C131.613 15.0568 131.883 16.7708 131.883 18.8068V20.2273H115.065V17.3295H128.474C128.474 16.0985 128.228 15 127.735 14.0341C127.252 13.0682 126.561 12.3059 125.661 11.7472C124.771 11.1884 123.72 10.9091 122.508 10.9091C121.173 10.9091 120.017 11.2405 119.042 11.9034C118.076 12.5568 117.333 13.4091 116.812 14.4602C116.291 15.5114 116.031 16.6383 116.031 17.8409V19.7727C116.031 21.4205 116.315 22.8172 116.883 23.9631C117.46 25.0994 118.261 25.9659 119.283 26.5625C120.306 27.1496 121.495 27.4432 122.849 27.4432C123.729 27.4432 124.525 27.3201 125.235 27.0739C125.955 26.8182 126.575 26.4394 127.096 25.9375C127.617 25.4261 128.019 24.7917 128.303 24.0341L131.542 24.9432C131.201 26.0417 130.628 27.0076 129.823 27.8409C129.018 28.6648 128.024 29.3087 126.84 29.7727C125.656 30.2273 124.326 30.4545 122.849 30.4545ZM146.471 8.18182V11.0227H135.164V8.18182H146.471ZM138.46 2.95455H141.812V23.75C141.812 24.697 141.949 25.4072 142.224 25.8807C142.508 26.3447 142.868 26.6572 143.303 26.8182C143.748 26.9697 144.217 27.0455 144.71 27.0455C145.079 27.0455 145.382 27.0265 145.619 26.9886C145.855 26.9413 146.045 26.9034 146.187 26.875L146.869 29.8864C146.641 29.9716 146.324 30.0568 145.917 30.142C145.51 30.2367 144.994 30.2841 144.369 30.2841C143.422 30.2841 142.494 30.0805 141.585 29.6733C140.685 29.2661 139.937 28.6458 139.34 27.8125C138.753 26.9792 138.46 25.928 138.46 24.6591V2.95455ZM151.513 30V8.18182H154.866V30H151.513ZM153.218 4.54545C152.565 4.54545 152.001 4.32292 151.528 3.87784C151.064 3.43277 150.832 2.89773 150.832 2.27273C150.832 1.64773 151.064 1.11269 151.528 0.667613C152.001 0.222538 152.565 0 153.218 0C153.871 0 154.43 0.222538 154.894 0.667613C155.368 1.11269 155.604 1.64773 155.604 2.27273C155.604 2.89773 155.368 3.43277 154.894 3.87784C154.43 4.32292 153.871 4.54545 153.218 4.54545ZM163.449 30.2273C162.748 30.2273 162.147 29.9763 161.645 29.4744C161.143 28.9725 160.892 28.3712 160.892 27.6705C160.892 26.9697 161.143 26.3684 161.645 25.8665C162.147 25.3646 162.748 25.1136 163.449 25.1136C164.15 25.1136 164.751 25.3646 165.253 25.8665C165.755 26.3684 166.006 26.9697 166.006 27.6705C166.006 28.1345 165.887 28.5606 165.651 28.9489C165.423 29.3371 165.116 29.6496 164.727 29.8864C164.348 30.1136 163.922 30.2273 163.449 30.2273ZM180.885 30.4545C178.839 30.4545 177.078 29.9716 175.601 29.0057C174.124 28.0398 172.987 26.7093 172.192 25.0142C171.396 23.3191 170.999 21.3826 170.999 19.2045C170.999 16.9886 171.406 15.0331 172.22 13.3381C173.044 11.6335 174.19 10.303 175.658 9.34659C177.135 8.38068 178.858 7.89773 180.828 7.89773C182.362 7.89773 183.745 8.18182 184.976 8.75C186.207 9.31818 187.215 10.1136 188.001 11.1364C188.787 12.1591 189.275 13.3523 189.464 14.7159H186.112C185.857 13.7216 185.288 12.8409 184.408 12.0739C183.536 11.2973 182.362 10.9091 180.885 10.9091C179.578 10.9091 178.432 11.25 177.447 11.9318C176.472 12.6042 175.71 13.5559 175.161 14.7869C174.621 16.0085 174.351 17.4432 174.351 19.0909C174.351 20.7765 174.616 22.2443 175.146 23.4943C175.686 24.7443 176.444 25.715 177.419 26.4062C178.404 27.0975 179.559 27.4432 180.885 27.4432C181.756 27.4432 182.547 27.2917 183.257 26.9886C183.967 26.6856 184.569 26.25 185.061 25.6818C185.554 25.1136 185.904 24.4318 186.112 23.6364H189.464C189.275 24.9242 188.806 26.0843 188.058 27.1165C187.32 28.1392 186.339 28.9536 185.118 29.5597C183.906 30.1562 182.495 30.4545 180.885 30.4545ZM203.229 30.4545C201.259 30.4545 199.531 29.9858 198.044 29.0483C196.567 28.1108 195.411 26.7992 194.578 25.1136C193.754 23.428 193.342 21.4583 193.342 19.2045C193.342 16.9318 193.754 14.9479 194.578 13.2528C195.411 11.5578 196.567 10.2415 198.044 9.30398C199.531 8.36648 201.259 7.89773 203.229 7.89773C205.198 7.89773 206.922 8.36648 208.399 9.30398C209.886 10.2415 211.041 11.5578 211.865 13.2528C212.698 14.9479 213.115 16.9318 213.115 19.2045C213.115 21.4583 212.698 23.428 211.865 25.1136C211.041 26.7992 209.886 28.1108 208.399 29.0483C206.922 29.9858 205.198 30.4545 203.229 30.4545ZM203.229 27.4432C204.725 27.4432 205.956 27.0597 206.922 26.2926C207.888 25.5256 208.603 24.517 209.067 23.267C209.531 22.017 209.763 20.6629 209.763 19.2045C209.763 17.7462 209.531 16.3873 209.067 15.1278C208.603 13.8684 207.888 12.8504 206.922 12.0739C205.956 11.2973 204.725 10.9091 203.229 10.9091C201.732 10.9091 200.501 11.2973 199.536 12.0739C198.57 12.8504 197.855 13.8684 197.391 15.1278C196.927 16.3873 196.695 17.7462 196.695 19.2045C196.695 20.6629 196.927 22.017 197.391 23.267C197.855 24.517 198.57 25.5256 199.536 26.2926C200.501 27.0597 201.732 27.4432 203.229 27.4432Z" fill="black"/>
</g>
<defs>
<filter id="filter0_d_101_7" x="0.38636" y="0" width="216.729" height="38.4545" filterUnits="userSpaceOnUse" color-interpolation-filters="sRGB">
<feFlood flood-opacity="0" result="BackgroundImageFix"/>
<feColorMatrix in="SourceAlpha" type="matrix" values="0 0 0 0 0 0 0 0 0 0 0 0 0 0 0 0 0 0 127 0" result="hardAlpha"/>
<feOffset dy="4"/>
<feGaussianBlur stdDeviation="2"/>
<feComposite in2="hardAlpha" operator="out"/>
<feColorMatrix type="matrix" values="0 0 0 0 0 0 0 0 0 0 0 0 0 0 0 0 0 0 0.25 0"/>
<feBlend mode="normal" in2="BackgroundImageFix" result="effect1_dropShadow_101_7"/>
<feBlend mode="normal" in="SourceGraphic" in2="effect1_dropShadow_101_7" result="shape"/>
</filter>
</defs>
</svg>
