<svg width="60" height="60" viewBox="0 0 60 60" fill="none" xmlns="http://www.w3.org/2000/svg">
<path d="M55 55L50 50M28.75 52.5C31.8689 52.5 34.9572 51.8857 37.8387 50.6921C40.7202 49.4986 43.3384 47.7492 45.5438 45.5438C47.7492 43.3384 49.4986 40.7202 50.6921 37.8387C51.8857 34.9572 52.5 31.8689 52.5 28.75C52.5 25.6311 51.8857 22.5428 50.6921 19.6613C49.4986 16.7798 47.7492 14.1616 45.5438 11.9562C43.3384 9.75082 40.7202 8.00141 37.8387 6.80786C34.9572 5.61431 31.8689 5 28.75 5C22.4511 5 16.4102 7.50222 11.9562 11.9562C7.50222 16.4102 5 22.4511 5 28.75C5 35.0489 7.50222 41.0898 11.9562 45.5438C16.4102 49.9978 22.4511 52.5 28.75 52.5Z" stroke="black" stroke-width="1.5" stroke-linecap="round" stroke-linejoin="round"/>
</svg>
